<svg width="937" height="733" viewBox="0 0 937 733" fill="none" xmlns="http://www.w3.org/2000/svg">
<ellipse cx="199.5" cy="477.5" rx="199.5" ry="178.5" fill="#361E72"/>
<ellipse cx="480.5" cy="554.5" rx="199.5" ry="178.5" fill="#361E72"/>
<path d="M937 539.5C937 638.083 847.681 718 737.5 718C627.319 718 538 638.083 538 539.5C538 440.917 627.319 361 737.5 361C847.681 361 937 440.917 937 539.5Z" fill="#361E72"/>
<ellipse cx="243.5" cy="269.5" rx="199.5" ry="178.5" fill="#361E72"/>
<ellipse cx="511.5" cy="178.5" rx="199.5" ry="178.5" fill="#361E72"/>
<ellipse cx="689.5" cy="326.5" rx="199.5" ry="178.5" fill="#361E72"/>
<g clip-path="url(#clip0_0_1)">
<path d="M385.442 422.66V399.851H573.267L575.989 432.872L385.442 422.66Z" fill="#201B2C"/>
<path d="M460.3 520.362C460.572 523.63 449.978 523.652 445.328 523.426L446.009 522.745C446.463 522.291 446.689 521.043 446.689 519.681C446.689 518.319 446.916 516.844 446.689 516.277C446.689 513.553 447.914 508.174 452.814 508.447C458.939 508.787 459.96 516.277 460.3 520.362Z" fill="white"/>
<path d="M388.504 533.298C379.658 527.851 390.546 494.83 397.351 494.83C400.754 492.106 426.274 496.872 436.481 500.617C446.689 504.362 448.391 521.043 446.009 523.085C444.103 524.719 433.192 523.766 427.975 523.085C411.642 521.996 395.31 532.277 388.504 533.298Z" fill="#020202"/>
<path d="M546.726 403.255H416.406L423.157 455.681L426.614 475.426L542.643 468.957L546.726 403.255Z" fill="#AE9E9E"/>
<path d="M534.817 527.511C538.356 525.332 546.273 527.511 549.789 528.872C550.923 529.667 552.851 530.779 551.49 528.872C549.789 526.489 547.407 510.83 548.088 505.383C548.632 501.026 545.365 497.553 543.664 496.872C542.303 496.872 538.9 497.553 536.859 497.894C534.174 498.342 522.228 516.617 523.929 517.638C525.29 518.455 525.063 524.56 523.929 527.511C525.517 528.418 531.279 529.689 534.817 527.511Z" fill="white"/>
<path d="M432.398 515.936C431.854 513.485 431.037 509.922 430.697 508.447C433.419 506.813 434.326 509.128 434.44 510.489L436.141 515.936C437.276 517.638 440.075 520.519 440.224 521.043C440.905 523.426 441.245 528.872 440.224 529.553C439.204 530.234 438.523 529.213 438.523 527.511C438.523 526.149 437.842 522.631 437.502 521.043C436.027 520.362 432.943 518.387 432.398 515.936Z" fill="white"/>
<path d="M426.283 521.723C427.304 520.362 428.655 512.532 429.336 508.106C431.377 506.745 431.037 506.745 431.718 507.766C432.398 508.787 429.345 521.043 428.325 522.404C427.304 523.766 425.183 523.19 426.283 521.723Z" fill="white"/>
<path d="M422.19 520.702C423.551 520.157 425.253 510.943 426.614 506.064C426.614 505.269 426.954 503.681 428.315 503.681C429.676 503.681 428.882 505.269 428.315 506.064C427.521 509.582 425.933 516.685 425.933 516.957C425.933 517.298 424.232 522.404 422.531 523.085C420.829 523.766 420.489 521.383 422.19 520.702Z" fill="white"/>
<path d="M416.066 522.57C416.338 522.025 419.922 508.561 421.85 501.638C426.205 498.37 425.253 502.546 424.232 505.043L421.17 513.213C420.149 516.503 418.243 522.774 417.427 523.591C416.406 524.612 415.725 523.251 416.066 522.57Z" fill="white"/>
<path d="M409.941 521.383C411.03 520.566 413.684 512.986 414.705 509.128C415.073 507.766 417.086 509.128 417.086 510.489C417.086 511.851 415.161 518.427 414.705 519.34C414.024 520.702 411.302 523.766 409.26 524.447C407.398 525.068 406.765 524.901 406.538 524.447C407.332 523.88 408.852 522.2 409.941 521.383Z" fill="white"/>
<path d="M411.642 502.319C410.826 500.14 408.806 499.822 407.899 499.936C406.765 499.369 405.449 498.234 409.26 498.234C413.071 498.234 414.024 500.957 414.364 503C415.385 505.043 412.096 511.397 409.941 514.574C407.748 517.866 403.7 523.897 401.924 526.401L401.434 527.511C401.661 527.965 400.55 528.055 401.094 527.511C401.2 527.405 401.496 527.005 401.924 526.401L407.899 512.872C409.487 510.263 412.459 504.498 411.642 502.319Z" fill="white"/>
<path d="M407.559 504.362C408.376 502.183 405.858 499.029 404.497 497.894C403.816 496.191 405.264 494.577 406.879 496.191C407.899 497.213 410.621 502.869 410.621 504.702C410.621 507.426 408.353 514.348 406.879 518.319C405.971 520.248 404.088 525.945 402.455 527.851C400.822 529.757 400.414 528.646 400.414 527.851C401.775 525.922 404.293 519.885 404.837 516.617C405.518 512.532 406.538 507.085 407.559 504.362Z" fill="white"/>
<path d="M412.663 511.511C411.846 512.6 407.105 521.723 404.837 526.149C405.926 527.783 406.879 526.376 407.219 525.468L412.663 516.277C414.364 513.78 417.971 508.583 418.788 507.766C419.604 506.949 419.582 504.475 419.468 503.34C419.128 501.979 418.175 499.119 417.086 498.574C415.998 498.03 415.499 498.801 415.385 499.255C415.725 500.05 416.542 501.979 417.086 503.34C417.767 505.043 413.684 510.149 412.663 511.511Z" fill="white"/>
<path d="M388.164 533.298C366.387 541.196 375.915 507.539 384.081 489.723C384.544 488.702 404.837 491.085 397.351 494.489C389.865 497.894 386.123 516.617 385.782 523.426C385.51 528.872 387.484 532.277 388.164 533.298Z" fill="white"/>
<path d="M423.551 515.596C421.918 514.234 418.107 509.582 416.746 506.404C418.379 504.77 418.674 505.723 419.128 506.745C421.736 509.354 426.844 515.666 428.996 516.957C430.697 517.979 428.655 519.34 427.975 519.681C426.274 519.114 425.185 516.957 423.551 515.596Z" fill="white"/>
<path d="M420.489 513.213C420.761 512.94 426.954 509.695 430.016 508.106C432.626 506.745 430.65 505.723 429.336 505.383C426.84 507.085 421.578 510.557 420.489 510.83C419.128 511.17 420.149 513.553 420.489 513.213Z" fill="white"/>
<path d="M591.641 489.119C586.469 491.298 556.821 494.566 542.643 495.928C544.799 497.176 548.7 501.307 547.067 507.843C545.433 514.379 550.015 526.453 552.511 531.673L603.55 529.29C611.83 529.516 628.934 526.702 631.112 513.63C633.834 497.29 598.106 486.396 591.641 489.119Z" fill="black"/>
<path d="M590.62 501.638C591.936 501.638 593.002 500.571 593.002 499.255C593.002 497.939 591.936 496.872 590.62 496.872C589.305 496.872 588.239 497.939 588.239 499.255C588.239 500.571 589.305 501.638 590.62 501.638Z" fill="#C4C4C4"/>
<path d="M563.399 504.362C564.715 504.362 565.781 503.295 565.781 501.979C565.781 500.663 564.715 499.596 563.399 499.596C562.084 499.596 561.018 500.663 561.018 501.979C561.018 503.295 562.084 504.362 563.399 504.362Z" fill="#C4C4C4"/>
<path d="M572.927 504.362C574.242 504.362 575.309 503.295 575.309 501.979C575.309 500.663 574.242 499.596 572.927 499.596C571.611 499.596 570.545 500.663 570.545 501.979C570.545 503.295 571.611 504.362 572.927 504.362Z" fill="#C4C4C4"/>
<path d="M582.454 504.362C583.77 504.362 584.836 503.295 584.836 501.979C584.836 500.663 583.77 499.596 582.454 499.596C581.139 499.596 580.072 500.663 580.072 501.979C580.072 503.295 581.139 504.362 582.454 504.362Z" fill="#C4C4C4"/>
<path d="M555.233 504.362C556.548 504.362 557.615 503.295 557.615 501.979C557.615 500.663 556.548 499.596 555.233 499.596C553.918 499.596 552.851 500.663 552.851 501.979C552.851 503.295 553.918 504.362 555.233 504.362Z" fill="#C4C4C4"/>
<path d="M558.636 527.851C559.316 526.489 568.503 509.695 572.246 501.979C574.424 500.617 574.174 503.908 574.288 505.043L571.225 512.532C568.73 517.298 563.331 527.443 561.698 529.894C559.656 532.957 557.86 529.403 558.636 527.851Z" fill="white"/>
<path d="M602.53 525.128C602.658 522.68 600.034 506.858 598.787 499.255C599.603 496.804 600.942 497.553 601.509 498.234C601.849 499.709 601.713 503.068 602.53 504.702C603.346 506.336 605.932 522.631 606.613 529.213C605.252 529.78 602.189 531.596 602.53 525.128Z" fill="white"/>
<path d="M597.766 498.915L595.077 526.149C597.119 528.872 596.778 529.894 597.799 529.213C598.82 528.532 601.168 500.617 601.168 498.915C601.168 497.553 598.9 498.348 597.766 498.915Z" fill="white"/>
<path d="M595.352 520.682C590.877 515.611 585.116 506.998 582.796 503.325C583.116 501.171 584.409 501.73 585.016 502.28L590.273 508.569C592.901 511.713 598.601 519.709 603.129 523.904C610.696 530.915 605.069 529.953 603.129 529.894C602.685 529.024 599.826 525.753 595.352 520.682Z" fill="white"/>
<path d="M593.237 521.936C591.621 517.015 589.435 505.371 589.105 499.866C589.036 498.82 591.677 497.963 591.717 501.128C591.758 504.292 597.24 520.252 597.385 521.422C597.529 522.593 599.127 529.553 598.106 529.553C595.326 529.553 595.488 528.788 593.237 521.936Z" fill="white"/>
<path d="M588.579 500.617L579.051 529.213C580.14 531.392 581.774 530.234 583.135 527.851L588.579 511.17C589.373 508.787 591.029 503.545 591.301 501.638C591.573 499.732 589.6 500.163 588.579 500.617Z" fill="white"/>
<path d="M585.454 523.391C584.616 520.571 582.998 508.971 581.433 503.34C581.492 500.029 583.119 501.131 584.155 502.319C585.528 506.885 587.558 515.596 588.457 519.547C589.287 523.196 590.793 528.657 589.6 528.872C586.468 529.439 586.502 526.914 585.454 523.391Z" fill="white"/>
<path d="M577.35 528.532C576.06 526.596 572.7 510.263 571.566 504.021C572.654 501.026 573.834 502.773 574.288 504.021C575.989 510.263 579.596 524.855 580.412 527.851C581.341 531.255 578.711 530.574 577.35 528.532Z" fill="white"/>
<path d="M581.093 521.723L566.462 508.106C562.923 504.021 562.492 501.071 563.74 501.298L572.927 510.149C577.123 514.007 586.061 522.064 588.239 523.426C590.961 525.128 590.961 529.553 588.919 529.553C587.286 529.553 583.021 523.88 581.093 521.723Z" fill="white"/>
<path d="M624.306 524.106C644.722 502.047 612.171 491.652 592.662 488.362C591.981 488.362 596.631 484.246 599.807 482.915C610.129 481.667 632.677 483.732 640.299 501.979C647.921 520.226 624.306 527.17 613.758 527.851L616.821 526.149L624.306 524.106Z" fill="white"/>
<path d="M613.078 475.085C597.834 485.162 559.09 493.809 541.623 496.872H476.292C451.249 496.872 456.103 480.078 461.661 471.681L518.144 455.34L571.906 422.66C583.589 416.759 610.22 408.498 623.286 422.66C639.618 440.362 632.132 462.489 613.078 475.085Z" fill="#AE9E9E"/>
<path d="M513.381 492.106C508.753 487.204 471.982 472.135 454.175 465.213C448.277 458.971 429.992 444.302 407.219 430.149C376.935 411.327 360.603 413.55 356.179 416.191C288.671 456.498 373.419 489.723 423.892 501.638C445.941 520.702 462.568 523.199 468.126 522.064C514.402 533.638 513.04 523.085 514.402 522.064C515.49 521.247 521.207 525.582 523.929 527.851C534.137 485.298 541.623 499.596 541.623 497.213C541.623 495.306 537.085 494.149 534.817 493.809C527.74 485.366 517.578 489.156 513.381 492.106Z" fill="#AE9E9E"/>
<path d="M488.542 477.128C493.192 480.078 511.543 492.038 513.721 491.766C516.443 491.426 527.672 489.723 532.435 491.766C536.246 493.4 540.602 495.624 542.303 496.532" stroke="#787070"/>
<path d="M501.131 473.607C505.192 473.887 541.846 461.045 561.698 455.103C560.006 449.51 521.769 455.103 518.385 455.103C515.001 455.103 481.505 466.267 477.106 468.364C472.707 470.461 496.055 473.257 501.131 473.607Z" fill="#948888"/>
<path d="M540.261 497.213C532 497.894 526.311 517.071 524.269 527.851L529.144 509L534.5 499.42M540.261 497.213C540.942 496.872 542.167 497.621 541.623 496.532L540.261 497.213ZM540.261 497.213C538 496.532 536.133 498.331 534.5 499.42M540.261 497.213L534.5 499.42" stroke="black"/>
<path d="M532.776 206.959C531.551 206.354 530.678 208.019 530.394 208.927C530.394 209.482 530.666 210.774 531.755 211.5C533.116 212.409 530.394 221.339 531.755 219.523C532.844 218.07 534.023 213.569 534.477 211.5C534.421 210.239 534.001 207.565 532.776 206.959Z" fill="#AB2D34"/>
<path d="M557.275 516.957C556.136 514.395 554.553 505.95 554.212 502.66C555.119 501.752 556.594 501.298 557.275 505.043C557.81 507.99 559.316 516.277 560.677 520.021C560.791 522.745 562.447 530.915 561.358 530.915C560.269 530.915 558.636 531.596 558.636 528.191V524.787C558.749 523.199 558.636 520.021 557.275 516.957Z" fill="white"/>
<path d="M571.566 530.234C571.566 527.891 561.244 515.596 557.955 509.808C556.05 506.511 555.8 503.555 556.934 504.021L574.288 529.553C574.401 531.142 571.566 530.915 571.566 530.234Z" fill="white"/>
<path d="M537.539 263C532.912 264.634 520.867 255.511 515.422 250.745L466.425 235.085L455.876 250.745C439.544 256.532 405.177 270.83 398.372 281.723C389.865 295.34 373.193 335.187 373.193 351.17C373.193 364.447 374.213 412.447 408.58 408.362L549.789 396.447C556.254 408.021 583.883 418.234 590.961 358.319C598.038 298.404 561.244 275.029 548.428 271.851C546.726 268.22 542.167 261.366 537.539 263Z" fill="#161122"/>
<path d="M407.559 298.404C405.654 297.587 400.64 291.029 398.372 287.851C397.351 287.851 398.372 293.298 399.393 294.66C400.414 296.021 403.816 299.766 405.177 300.787C406.538 301.809 409.941 306.915 410.962 308.617C411.778 309.979 412.209 306.915 412.323 305.213C411.529 303.284 409.465 299.221 407.559 298.404Z" fill="#383244"/>
<path d="M554.644 295.681C556.178 295.18 560.212 291.16 562.038 289.213C562.86 289.213 562.038 292.551 561.217 293.386C560.395 294.22 557.656 296.516 556.561 297.142C555.465 297.768 552.727 300.898 551.905 301.941C551.248 302.775 550.901 300.898 550.81 299.854C551.449 298.672 553.11 296.182 554.644 295.681Z" fill="#383244"/>
<path d="M471.528 275.936C462.001 260.957 465.063 241.553 467.786 233.723C483.664 230.546 515.15 229.298 514.061 249.723C512.972 270.149 500.905 283.426 495.007 287.511C491.15 289.894 481.056 290.915 471.528 275.936Z" fill="#E4966C"/>
<path d="M472.209 242.574C479.921 250.858 498.681 263.545 512.02 248.021" stroke="#B67B5B"/>
<path d="M533.918 205.536C532.284 202.053 529.048 205.744 527.635 208.024C525.698 214.503 522.546 227.648 525.436 228.394C529.048 229.328 528.734 227.15 530.148 225.129C531.279 223.512 533.76 217.406 534.86 214.555C535.226 213 535.551 209.02 533.918 205.536Z" fill="#E4966C"/>
<path d="M502.466 171.473C521.791 169.729 525.59 179.573 524.454 183C525.59 180.3 525.135 169.168 519.19 159.947C513.243 150.725 497.097 150.393 489.768 151.379C483.781 152.418 471.124 156.084 468.399 162.439C464.992 170.383 464.373 173.966 463.753 179.573C463.133 185.181 468.399 181.442 468.399 177.704C468.399 174.713 470.67 173.966 471.805 173.966C473.973 173.862 483.14 173.218 502.466 171.473Z" fill="black"/>
<path d="M527.116 216.666C527.766 217.252 527.387 221.201 527.116 223.103C529.226 223.688 529.713 220.324 529.713 218.422C529.713 216.52 526.305 215.935 527.116 216.666Z" fill="#AB2D34"/>
<path d="M485.453 252.243C481.47 250.371 475.495 245.327 473.006 243.039C471.294 241.518 468.182 233.68 466.626 226.972C465.315 221.318 461.491 207.057 461.958 200.921C461.076 193.953 462.02 178.926 466.626 175.806C471.232 172.686 480.941 172.686 483.898 172.686C494.894 171.074 518.347 169.722 524.198 177.21C531.511 186.57 528.399 206.693 528.243 213.868C528.088 221.044 521.241 237.579 521.241 239.451C521.241 241.323 508.638 252.243 502.725 254.271C496.813 256.298 490.433 254.583 485.453 252.243Z" fill="#E4966C"/>
<path d="M460.151 204.787C461.845 204.787 463.177 206.957 463.632 208.042C465.447 214.448 468.535 227.446 466.356 228.19C463.632 229.12 464.237 228.655 461.21 225.555C458.788 223.076 457.78 212.02 457.578 206.802C457.729 206.13 458.456 204.787 460.151 204.787Z" fill="#E4966C"/>
<path d="M460.266 208.736C460.479 209.702 459.641 212.86 459.195 214.319C458.553 213.836 458.303 210.396 458.258 208.736C458.303 207.78 458.606 205.929 459.463 206.17C460.533 206.472 459.998 207.529 460.266 208.736Z" fill="#AB2D34"/>
<path d="M532.034 208.533C531.824 209.479 532.645 212.572 533.083 214C533.711 213.527 533.956 210.158 534 208.533C533.956 207.597 533.659 205.785 532.82 206.021C531.772 206.317 532.296 207.351 532.034 208.533Z" fill="#AB2D34"/>
<path d="M461.988 219.445C460.639 222.158 463.787 223.967 465.53 224.532C467.15 223.669 466.205 222.425 465.53 221.911C464.912 219.959 463.338 216.732 461.988 219.445Z" fill="#AB2D34"/>
<path d="M402.115 358.66C389.321 357.026 391.475 365.809 391.907 371.936C393.268 391.227 394.289 432.587 394.289 444.106C394.289 453.979 402.569 456.588 407.559 455.681C451.793 455 543.188 454.047 554.893 455.681C566.598 457.315 568.163 450.234 567.482 446.489C568.39 427.88 570.613 386.915 572.246 371.936C573.879 356.957 564.76 358.586 559.656 358.66C512.474 359.34 414.909 360.294 402.115 358.66Z" fill="#271D40"/>
<path d="M599.467 499.596C600.783 499.596 601.849 498.529 601.849 497.213C601.849 495.897 600.783 494.83 599.467 494.83C598.152 494.83 597.085 495.897 597.085 497.213C597.085 498.529 598.152 499.596 599.467 499.596Z" fill="#C4C4C4"/>
<path d="M385.102 398.83C387.143 400.305 390.546 402.779 393.268 403.596" stroke="#373535"/>
<path d="M567.482 530.574L562.379 503C562.651 501.094 563.74 499.936 565.101 502.319L569.524 530.574H567.482Z" fill="white"/>
<path d="M572.5 365C569.934 353.755 569.048 325.094 561.698 318.83C552.511 311 550.469 303.511 551.15 301.128C551.83 298.745 546.046 293.298 541.963 291.596" stroke="#383244" stroke-width="3"/>
<path d="M467.105 233.723C465.177 242.234 462.954 264.089 470.848 275.255C478.742 286.421 485.253 288.986 487.521 288.872C490.016 289.553 496.232 289.145 501.131 282.064C507.256 273.213 513.721 263.34 515.082 249.723" stroke="#FFF8F8" stroke-width="3"/>
<path d="M424.912 289.553C421.85 291.369 415.453 296.089 414.364 300.447C413.003 305.894 412.323 311 408.58 315.766C404.837 320.532 396.671 338.915 397.011 345.383C397.283 350.557 397.124 356.617 397.011 359" stroke="#383244" stroke-width="3"/>
<path d="M469.147 469.638L446.349 456.702L443.287 454.319H476.973H521.207L520.186 456.702L469.147 469.638Z" fill="#201B2C"/>
<path d="M474.931 468.957C479.014 471.227 487.521 476.106 488.882 477.468" stroke="#726C6C"/>
<path d="M569.864 402.574C571.112 402.574 573.743 402.37 574.288 401.553" stroke="#373535"/>
</g>
<g clip-path="url(#clip1_0_1)">
<path d="M220.219 520.432C208.668 510.71 214.306 496.881 218.569 491.183L228.057 483.15L278.799 497.774L358.418 490.771L361.099 492.213C365.72 494.355 362.062 496.126 359.655 496.744C354.375 499.381 354.568 508.828 355.324 513.223C357.18 513.223 359.779 514.706 363.574 516.518C367.37 518.331 365.156 519.471 363.574 519.814L279.83 540L220.219 520.432Z" fill="#201B2C"/>
<path d="M219.394 500.452C217.909 508.526 220.838 513.909 222.488 515.488L281.687 532.585L352.436 514.664C350.126 509.556 352.023 502.1 353.261 499.01L281.687 513.429L227.026 495.714C223.932 494.89 220.879 492.377 219.394 500.452Z" fill="white"/>
<path d="M281.893 512.399V532.791" stroke="#201B2C" stroke-width="4"/>
<path d="M217.332 463.375L224.138 461.522L224.963 459.462L286.637 472.439L359.862 454.518C361.168 455.136 364.73 456.743 368.525 458.226C372.32 459.709 370.794 460.766 369.556 461.11L362.337 462.963C370.918 475.157 363.574 486.994 358.83 491.389L301.282 510.751L214.031 489.535C215.681 486.734 222.007 484.935 224.963 484.385C226.449 474.169 221.732 468.731 219.188 467.289C214.733 465.971 216.094 464.131 217.332 463.375Z" fill="#2FC87F"/>
<path d="M227.851 485.621C229.831 478.371 227.851 472.027 226.614 469.761L299.013 485.621L352.024 466.877C360.893 462.14 360.893 469.967 360.893 475.322C360.068 482.12 358.761 485.072 356.768 486.857L299.013 503.542L227.851 485.621Z" fill="white"/>
<path d="M298.807 504.365V484.797" stroke="#2FC87F" stroke-width="4"/>
<path d="M370.381 435.714C359.978 439.485 360.268 450.285 361.712 455.213L362.337 457.402L288.493 475.734L224.698 461.427C212.809 443.599 221.533 432.285 227.381 428.857L314.896 416C330.239 421.071 361.833 431.428 365.465 432.285C369.098 433.142 370.794 434.928 370.381 435.714Z" fill="#201B2C"/>
<path d="M287.668 454.518L229.501 435.156C221.251 433.92 219.6 452.664 226.407 458.02L287.668 474.086L324.178 464.817L356.974 456.372C355.159 448.462 357.043 442.365 358.211 440.306L287.668 454.518Z" fill="white"/>
<path d="M288.081 474.704V454" stroke="#201B2C" stroke-width="4"/>
</g>
<path d="M234.399 465.287V441.417C242.084 433.579 259.428 415.991 267.327 408.341C275.226 400.691 287.452 411.528 292.578 417.903L318.915 391.803L304.648 376H350V422.293L334.268 408.341C327.442 415.443 311.3 432.002 301.341 441.417C291.382 450.832 279.633 440.436 275.004 434.062C267.571 441.409 250.584 458.382 242.1 467.494C233.615 476.605 233.431 469.819 234.399 465.287Z" fill="#422A7B" stroke="black"/>
<defs>
<clipPath id="clip0_0_1">
<rect width="311" height="384" fill="white" transform="translate(331 151)"/>
</clipPath>
<clipPath id="clip1_0_1">
<rect width="158" height="124" fill="white" transform="translate(213 416)"/>
</clipPath>
</defs>
</svg>
