<svg width="1878" height="1287" viewBox="0 0 1878 1287" fill="none" xmlns="http://www.w3.org/2000/svg">
<circle cx="642" cy="642" r="642" fill="white"/>
<path d="M247.5 977C271.9 952.6 419 911.833 489.5 894.5C554.333 889.833 706.9 883.3 798.5 894.5C890.1 905.7 986 949.167 1022.5 969.5C1076.5 988.3 1094 1063 1097.5 1095L1079.5 1111.5L1059 1130L1015 1167C963.5 1210.5 788.014 1296.49 601 1285C397.5 1272.5 286.5 1195 187.5 1097.5C203.5 1013 217 1007.5 247.5 977Z" fill="#241A64"/>
<path d="M488 901.5C502.8 880.7 519.833 815.5 526.5 785.5C583.5 763 703.4 731.5 727 785.5C750.6 839.5 782.5 878 795.5 890.5C798.3 948.5 751 1002.33 727 1022C547 1113 469.5 927.5 488 901.5Z" fill="#E0BB99"/>
<path d="M875 563C865.4 531.4 843 549.833 833 563L825.5 661L845.5 653.5C868 645 884.6 594.6 875 563Z" fill="#E0BB99"/>
<path d="M408.49 550.031C426.2 534.634 447.341 566.523 455.698 584.392L451.262 645.978C379.549 619.099 386.352 569.278 408.49 550.031Z" fill="#E0BB99"/>
<path d="M493 895.5C482.5 905.833 473 949.5 540 1013.5C568.659 1040.88 647.6 1073.5 734 1017.5C761.5 996 794 952 797.5 890.5" stroke="#FFFDFD" stroke-width="7"/>
<path d="M834.5 668C683.3 986.8 522.167 811.833 460.5 684.5C418.333 559.167 383.5 330 675.5 373.5C869 342 862.833 555.667 834.5 668Z" fill="#E0BB99"/>
<path d="M527 784C561 823.833 637.5 892.5 736.5 810" stroke="#C29770" stroke-width="3"/>
<path d="M489 426C434.5 450.5 466.5 584 468.5 590.5C458.9 560.5 432.333 551.5 422.5 548.5C401.667 450.667 421.2 250.7 648 251.5C874.8 252.3 880.833 446.833 855.5 544C852.333 546.833 843.9 553.2 835.5 556C827.1 558.8 817 580.167 813 590.5C827.8 512.5 824.167 477.667 820.5 470C786.1 414 720.167 404 691.5 406C726.7 425.2 744.833 486.667 749.5 515C690.3 459 639.167 440.333 621 438C635.4 474.8 631.333 504.667 627.5 515C587.1 463.4 518.333 434.167 489 426Z" fill="#06004E"/>
<path d="M750.5 516C692 463 639 443.5 622 438C595.167 406.833 571.9 356.9 693.5 406.5C724.7 422.9 745.833 486.5 750.5 516Z" fill="#06004E" fill-opacity="0.62"/>
<path d="M1809.06 1160V1151.27H1814.32V1152.21H1810.11V1155.16H1814.05V1156.1H1810.11V1159.06H1814.39V1160H1809.06ZM1816.59 1160H1815.48L1818.68 1151.27H1819.77L1822.98 1160H1821.87L1819.26 1152.65H1819.19L1816.59 1160ZM1817 1156.59H1821.46V1157.53H1817V1156.59ZM1829.11 1153.45C1829.06 1153.02 1828.85 1152.69 1828.49 1152.45C1828.13 1152.21 1827.68 1152.09 1827.15 1152.09C1826.76 1152.09 1826.43 1152.15 1826.14 1152.28C1825.85 1152.4 1825.63 1152.58 1825.46 1152.79C1825.3 1153.01 1825.22 1153.26 1825.22 1153.54C1825.22 1153.77 1825.28 1153.97 1825.39 1154.14C1825.5 1154.31 1825.65 1154.44 1825.83 1154.55C1826 1154.66 1826.19 1154.75 1826.38 1154.82C1826.57 1154.89 1826.75 1154.95 1826.91 1154.99L1827.8 1155.23C1828.03 1155.29 1828.28 1155.37 1828.56 1155.47C1828.84 1155.58 1829.11 1155.72 1829.36 1155.9C1829.62 1156.08 1829.83 1156.31 1830 1156.6C1830.17 1156.88 1830.25 1157.22 1830.25 1157.63C1830.25 1158.1 1830.13 1158.53 1829.88 1158.91C1829.64 1159.29 1829.28 1159.59 1828.81 1159.82C1828.34 1160.04 1827.77 1160.15 1827.1 1160.15C1826.47 1160.15 1825.93 1160.05 1825.48 1159.85C1825.02 1159.65 1824.66 1159.37 1824.4 1159.01C1824.14 1158.65 1824 1158.23 1823.96 1157.75H1825.05C1825.08 1158.08 1825.19 1158.35 1825.39 1158.57C1825.58 1158.78 1825.83 1158.94 1826.13 1159.05C1826.43 1159.15 1826.75 1159.2 1827.1 1159.2C1827.5 1159.2 1827.87 1159.13 1828.19 1159C1828.51 1158.87 1828.76 1158.68 1828.95 1158.45C1829.14 1158.21 1829.23 1157.93 1829.23 1157.61C1829.23 1157.32 1829.15 1157.09 1828.99 1156.91C1828.83 1156.72 1828.61 1156.58 1828.35 1156.46C1828.08 1156.35 1827.8 1156.25 1827.49 1156.16L1826.42 1155.86C1825.74 1155.66 1825.2 1155.38 1824.8 1155.02C1824.4 1154.65 1824.2 1154.18 1824.2 1153.59C1824.2 1153.1 1824.33 1152.68 1824.6 1152.31C1824.87 1151.95 1825.22 1151.66 1825.67 1151.46C1826.12 1151.26 1826.63 1151.15 1827.18 1151.15C1827.75 1151.15 1828.25 1151.25 1828.68 1151.46C1829.12 1151.65 1829.47 1151.93 1829.72 1152.27C1829.98 1152.62 1830.12 1153.01 1830.13 1153.45H1829.11ZM1831.51 1152.21V1151.27H1838.06V1152.21H1835.31V1160H1834.26V1152.21H1831.51ZM1843.06 1160V1151.27H1848.3V1152.21H1844.12V1155.16H1847.91V1156.1H1844.12V1160H1843.06ZM1851.16 1151.27V1160H1850.11V1151.27H1851.16ZM1859.25 1154C1859.16 1153.71 1859.03 1153.46 1858.88 1153.23C1858.73 1153 1858.55 1152.8 1858.34 1152.64C1858.13 1152.48 1857.89 1152.36 1857.63 1152.27C1857.37 1152.18 1857.08 1152.14 1856.76 1152.14C1856.24 1152.14 1855.77 1152.28 1855.35 1152.54C1854.93 1152.81 1854.59 1153.2 1854.34 1153.72C1854.09 1154.24 1853.97 1154.88 1853.97 1155.64C1853.97 1156.39 1854.09 1157.03 1854.34 1157.55C1854.6 1158.07 1854.94 1158.46 1855.37 1158.73C1855.8 1159 1856.29 1159.13 1856.83 1159.13C1857.33 1159.13 1857.77 1159.02 1858.15 1158.81C1858.53 1158.6 1858.83 1158.29 1859.04 1157.9C1859.26 1157.5 1859.37 1157.04 1859.37 1156.51L1859.69 1156.57H1857.07V1155.64H1860.39V1156.57C1860.39 1157.29 1860.24 1157.92 1859.93 1158.45C1859.63 1158.98 1859.21 1159.39 1858.67 1159.68C1858.14 1159.97 1857.52 1160.12 1856.83 1160.12C1856.06 1160.12 1855.38 1159.94 1854.79 1159.57C1854.21 1159.21 1853.75 1158.69 1853.43 1158.02C1853.1 1157.35 1852.94 1156.56 1852.94 1155.64C1852.94 1154.95 1853.03 1154.33 1853.22 1153.77C1853.41 1153.22 1853.67 1152.75 1854.01 1152.36C1854.35 1151.97 1854.76 1151.67 1855.22 1151.46C1855.69 1151.26 1856.2 1151.15 1856.76 1151.15C1857.22 1151.15 1857.65 1151.22 1858.05 1151.36C1858.45 1151.5 1858.8 1151.69 1859.12 1151.95C1859.43 1152.2 1859.7 1152.5 1859.91 1152.85C1860.12 1153.19 1860.26 1153.58 1860.34 1154H1859.25ZM1862.2 1160V1151.27H1863.26V1155.16H1867.91V1151.27H1868.97V1160H1867.91V1156.1H1863.26V1160H1862.2ZM1870.61 1152.21V1151.27H1877.15V1152.21H1874.41V1160H1873.35V1152.21H1870.61Z" fill="black"/>
</svg>
